<svg width="16" height="16" viewBox="0 0 16 16" fill="none" xmlns="http://www.w3.org/2000/svg">
<g id="icon/ChevronLeft">
<path id="Vector" d="M10.265 12.735C10.3018 12.7694 10.3314 12.8108 10.3519 12.8568C10.3724 12.9028 10.3834 12.9524 10.3843 13.0028C10.3852 13.0531 10.3759 13.1032 10.3571 13.1498C10.3382 13.1965 10.3101 13.239 10.2745 13.2746C10.2389 13.3102 10.1965 13.3382 10.1498 13.3571C10.1031 13.376 10.0531 13.3852 10.0027 13.3843C9.95239 13.3835 9.90273 13.3724 9.85673 13.3519C9.81073 13.3314 9.76933 13.3019 9.735 13.265L4.735 8.26505C4.66477 8.19473 4.62533 8.09942 4.62533 8.00005C4.62533 7.90067 4.66477 7.80536 4.735 7.73505L9.735 2.73505C9.80609 2.66881 9.90011 2.63274 9.99726 2.63446C10.0944 2.63617 10.1871 2.67553 10.2558 2.74423C10.3245 2.81294 10.3639 2.90563 10.3656 3.00278C10.3673 3.09993 10.3312 3.19396 10.265 3.26505L5.53062 8.00005L10.265 12.735Z" fill="#775743"/>
</g>
</svg>
